<svg xmlns="http://www.w3.org/2000/svg" width="512" height="512" enable-background="new 0 0 512 512" viewBox="0 0 512 512"><path fill="#fff" d="M418.495,308.531c0.243,42.933-11.049,86.247-41.265,117.971c-26.943,28.286-65.147,42.513-103.499,45.755
			c-39.438,3.335-80.576-3.696-114.231-25.264c-34.39-22.037-54.959-58.307-62.526-97.84c-3.823-19.974-4.943-41.061-1.44-61.159
			c3.149-18.072,9.34-35.602,16.76-52.329c16.357-36.874,38.939-70.93,63.054-103.132c24.96-33.332,52.198-65.622,81.777-94.991
			c-2.357,0-4.714,0-7.071,0c37.544,35.999,71.9,76.341,102.142,118.591c17.414,24.329,33.425,49.844,46.143,76.963
			C409.361,256.605,418.155,282.327,418.495,308.531c0.084,6.443,10.084,6.451,10,0c-0.477-36.749-15.981-72.157-33.45-103.802
			c-19.388-35.121-43.397-67.655-68.819-98.609c-21.623-26.329-44.487-52.049-69.101-75.649c-1.971-1.89-5.107-1.95-7.071,0
			c-36.945,36.683-70.544,77.678-100.217,120.386c-22.702,32.675-43.408,67.617-56.324,105.414
			c-13.168,38.537-12.846,79.867-0.292,118.638c12.179,37.612,37.969,69.04,72.957,87.56
			c35.532,18.809,77.815,23.734,117.347,18.761c38.485-4.841,75.541-20.712,102.335-49.305
			c29.641-31.631,41.806-74.722,42.614-117.276c0.039-2.038,0.033-4.077,0.021-6.116
			C428.459,302.085,418.459,302.081,418.495,308.531z"/><path fill="#fff" d="M236.644 273.636c-.627 16.301-24.645 16.3-25.272 0-.273-7.095 5.95-12.378 12.637-12.636C231.102 260.727 236.386 266.948 236.644 273.636c.248 6.427 10.249 6.451 10 0-.487-12.66-9.975-22.148-22.635-22.636-12.649-.487-22.178 10.707-22.637 22.636-.487 12.649 10.709 22.177 22.637 22.636 12.649.487 22.176-10.708 22.635-22.636C246.892 267.185 236.891 267.209 236.644 273.636zM303.803 340.796c-.628 16.303-24.643 16.303-25.271 0-.273-7.094 5.949-12.376 12.636-12.634C298.261 327.889 303.545 334.109 303.803 340.796c.247 6.427 10.248 6.451 10 0-.487-12.66-9.976-22.146-22.635-22.634-12.648-.487-22.177 10.706-22.636 22.634-.487 12.65 10.706 22.179 22.636 22.638 12.65.487 22.176-10.709 22.635-22.638C314.051 334.345 304.05 334.369 303.803 340.796zM196.533 364.118c-4.691 8.377 3.463 17.21 11.628 19.244 5.085 1.267 8.685-2.208 11.431-5.858 5.463-7.261 10.925-14.521 16.388-21.781 18.807-24.998 37.614-49.996 56.422-74.994 6.578-8.744 13.157-17.488 19.736-26.233 1.103-1.466 2.206-2.933 3.31-4.399 5.786-7.691-3.023-15.02-9.158-18.455-8.813-4.935-15.06 6.607-19.374 12.341-7.61 10.115-15.22 20.23-22.83 30.345C241.568 304.258 219.05 334.188 196.533 364.118c-3.88 5.158 4.809 10.133 8.635 5.047 29.679-39.449 59.358-78.898 89.038-118.348 2.175-2.891 4.35-5.782 6.524-8.672.448-.596.896-1.191 1.345-1.787-.197.262 3.685 3.092 4.434 3.655 1.212.912.591.656-.065 1.528-.618.821-1.235 1.643-1.854 2.464-2.416 3.211-4.831 6.422-7.247 9.633-18.036 23.973-36.072 47.945-54.108 71.918-8.48 11.271-16.96 22.543-25.44 33.814-2.229 2.961-4.457 5.923-6.685 8.885-.427.567-.854 1.135-1.281 1.703.274-.365-.979-1.258-1.368-1.551-.752-.565-1.505-1.132-2.257-1.698-1.3-.978-1.504-.707-1.036-1.544C208.322 363.533 199.683 358.492 196.533 364.118z"/></svg>